<svg xmlns="http://www.w3.org/2000/svg" width="24" height="24" viewBox="0 0 24 24" fill="currentColor">
	<path fill-rule="evenodd" clip-rule="evenodd" d="M23.295 8.687C23.256 6.141 21.757 3.634 19.451 2.601C18.28 2.076 16.921 1.945 15.504 2.377C14.323 2.738 13.141 3.476 12.001 4.637C10.861 3.476 9.679 2.738 8.498 2.377C7.081 1.945 5.722 2.076 4.551 2.601C2.245 3.634 0.746 6.141 0.707 8.687L0.707 8.699C0.707 12.412 3.003 15.702 5.435 18.011C6.662 19.176 7.958 20.124 9.088 20.787C9.653 21.118 10.188 21.384 10.662 21.57C11.114 21.747 11.586 21.882 12.001 21.882C12.416 21.882 12.888 21.747 13.341 21.57C13.814 21.384 14.349 21.118 14.914 20.787C16.044 20.124 17.34 19.176 18.567 18.011C20.999 15.702 23.295 12.412 23.295 8.699L23.295 8.687Z"/>
</svg>
